<mxfile host="app.diagrams.net" modified="2022-03-03T15:10:21.350Z" agent="5.0 (Macintosh; Intel Mac OS X 10_15_7) AppleWebKit/537.36 (KHTML, like Gecko) Chrome/98.0.4758.102 Safari/537.36" etag="WlxWMZhxnj34QXGgiClj" version="16.6.4" type="github">
  <diagram id="C5RBs43oDa-KdzZeNtuy" name="Page-1">
    <mxGraphModel dx="1258" dy="659" grid="1" gridSize="10" guides="1" tooltips="1" connect="1" arrows="1" fold="1" page="1" pageScale="1" pageWidth="827" pageHeight="1169" math="0" shadow="0">
      <root>
        <mxCell id="WIyWlLk6GJQsqaUBKTNV-0" />
        <mxCell id="WIyWlLk6GJQsqaUBKTNV-1" parent="WIyWlLk6GJQsqaUBKTNV-0" />
        <mxCell id="WIyWlLk6GJQsqaUBKTNV-2" value="" style="rounded=0;html=1;jettySize=auto;orthogonalLoop=1;fontSize=11;endArrow=block;endFill=0;endSize=8;strokeWidth=1;shadow=0;labelBackgroundColor=none;edgeStyle=orthogonalEdgeStyle;" parent="WIyWlLk6GJQsqaUBKTNV-1" source="WIyWlLk6GJQsqaUBKTNV-3" target="WIyWlLk6GJQsqaUBKTNV-6" edge="1">
          <mxGeometry relative="1" as="geometry" />
        </mxCell>
        <mxCell id="WIyWlLk6GJQsqaUBKTNV-3" value="Fetch List of all products from Shop RabbitMQ" style="rounded=1;whiteSpace=wrap;html=1;fontSize=12;glass=0;strokeWidth=1;shadow=0;" parent="WIyWlLk6GJQsqaUBKTNV-1" vertex="1">
          <mxGeometry x="160" y="80" width="200" height="40" as="geometry" />
        </mxCell>
        <mxCell id="WIyWlLk6GJQsqaUBKTNV-4" value="Yes" style="rounded=0;html=1;jettySize=auto;orthogonalLoop=1;fontSize=11;endArrow=block;endFill=0;endSize=8;strokeWidth=1;shadow=0;labelBackgroundColor=none;edgeStyle=orthogonalEdgeStyle;" parent="WIyWlLk6GJQsqaUBKTNV-1" source="WIyWlLk6GJQsqaUBKTNV-6" edge="1">
          <mxGeometry y="20" relative="1" as="geometry">
            <mxPoint as="offset" />
            <mxPoint x="260" y="340" as="targetPoint" />
          </mxGeometry>
        </mxCell>
        <mxCell id="WIyWlLk6GJQsqaUBKTNV-5" value="No" style="edgeStyle=orthogonalEdgeStyle;rounded=0;html=1;jettySize=auto;orthogonalLoop=1;fontSize=11;endArrow=block;endFill=0;endSize=8;strokeWidth=1;shadow=0;labelBackgroundColor=none;" parent="WIyWlLk6GJQsqaUBKTNV-1" source="WIyWlLk6GJQsqaUBKTNV-6" target="WIyWlLk6GJQsqaUBKTNV-7" edge="1">
          <mxGeometry y="10" relative="1" as="geometry">
            <mxPoint as="offset" />
          </mxGeometry>
        </mxCell>
        <mxCell id="WIyWlLk6GJQsqaUBKTNV-6" value="Is product id &lt;br&gt;already &lt;br&gt;exists in Triva?" style="rhombus;whiteSpace=wrap;html=1;shadow=0;fontFamily=Helvetica;fontSize=12;align=center;strokeWidth=1;spacing=6;spacingTop=-4;" parent="WIyWlLk6GJQsqaUBKTNV-1" vertex="1">
          <mxGeometry x="195" y="180" width="130" height="100" as="geometry" />
        </mxCell>
        <mxCell id="6PNa06MbmQNXzE9C8vAL-4" value="" style="edgeStyle=orthogonalEdgeStyle;rounded=0;orthogonalLoop=1;jettySize=auto;html=1;" edge="1" parent="WIyWlLk6GJQsqaUBKTNV-1" source="WIyWlLk6GJQsqaUBKTNV-7" target="6PNa06MbmQNXzE9C8vAL-2">
          <mxGeometry relative="1" as="geometry" />
        </mxCell>
        <mxCell id="WIyWlLk6GJQsqaUBKTNV-7" value="Create new product record in Triva" style="rounded=1;whiteSpace=wrap;html=1;fontSize=12;glass=0;strokeWidth=1;shadow=0;" parent="WIyWlLk6GJQsqaUBKTNV-1" vertex="1">
          <mxGeometry x="440" y="210" width="120" height="40" as="geometry" />
        </mxCell>
        <mxCell id="6PNa06MbmQNXzE9C8vAL-3" value="" style="edgeStyle=orthogonalEdgeStyle;rounded=0;orthogonalLoop=1;jettySize=auto;html=1;" edge="1" parent="WIyWlLk6GJQsqaUBKTNV-1" source="WIyWlLk6GJQsqaUBKTNV-11" target="6PNa06MbmQNXzE9C8vAL-2">
          <mxGeometry relative="1" as="geometry" />
        </mxCell>
        <mxCell id="WIyWlLk6GJQsqaUBKTNV-11" value="Update product details in Triva" style="rounded=1;whiteSpace=wrap;html=1;fontSize=12;glass=0;strokeWidth=1;shadow=0;" parent="WIyWlLk6GJQsqaUBKTNV-1" vertex="1">
          <mxGeometry x="200" y="340" width="120" height="40" as="geometry" />
        </mxCell>
        <mxCell id="6PNa06MbmQNXzE9C8vAL-1" value="" style="edgeStyle=orthogonalEdgeStyle;rounded=0;orthogonalLoop=1;jettySize=auto;html=1;" edge="1" parent="WIyWlLk6GJQsqaUBKTNV-1" source="6PNa06MbmQNXzE9C8vAL-0" target="WIyWlLk6GJQsqaUBKTNV-3">
          <mxGeometry relative="1" as="geometry" />
        </mxCell>
        <mxCell id="6PNa06MbmQNXzE9C8vAL-0" value="Start" style="ellipse;whiteSpace=wrap;html=1;" vertex="1" parent="WIyWlLk6GJQsqaUBKTNV-1">
          <mxGeometry x="20" y="75" width="80" height="50" as="geometry" />
        </mxCell>
        <mxCell id="6PNa06MbmQNXzE9C8vAL-11" value="" style="edgeStyle=orthogonalEdgeStyle;rounded=0;orthogonalLoop=1;jettySize=auto;html=1;" edge="1" parent="WIyWlLk6GJQsqaUBKTNV-1" source="6PNa06MbmQNXzE9C8vAL-2" target="6PNa06MbmQNXzE9C8vAL-5">
          <mxGeometry relative="1" as="geometry" />
        </mxCell>
        <mxCell id="6PNa06MbmQNXzE9C8vAL-2" value="List all product for Mobile FE to display" style="rounded=1;whiteSpace=wrap;html=1;fontSize=12;glass=0;strokeWidth=1;shadow=0;" vertex="1" parent="WIyWlLk6GJQsqaUBKTNV-1">
          <mxGeometry x="440" y="340" width="120" height="40" as="geometry" />
        </mxCell>
        <mxCell id="6PNa06MbmQNXzE9C8vAL-8" value="" style="edgeStyle=orthogonalEdgeStyle;rounded=0;orthogonalLoop=1;jettySize=auto;html=1;" edge="1" parent="WIyWlLk6GJQsqaUBKTNV-1" source="6PNa06MbmQNXzE9C8vAL-5" target="6PNa06MbmQNXzE9C8vAL-6">
          <mxGeometry relative="1" as="geometry" />
        </mxCell>
        <mxCell id="6PNa06MbmQNXzE9C8vAL-25" value="Yes" style="edgeLabel;html=1;align=center;verticalAlign=middle;resizable=0;points=[];" vertex="1" connectable="0" parent="6PNa06MbmQNXzE9C8vAL-8">
          <mxGeometry x="0.0889" y="3" relative="1" as="geometry">
            <mxPoint x="29" y="-3" as="offset" />
          </mxGeometry>
        </mxCell>
        <mxCell id="6PNa06MbmQNXzE9C8vAL-9" style="edgeStyle=orthogonalEdgeStyle;rounded=0;orthogonalLoop=1;jettySize=auto;html=1;entryX=1;entryY=0.5;entryDx=0;entryDy=0;exitX=1;exitY=0.5;exitDx=0;exitDy=0;" edge="1" parent="WIyWlLk6GJQsqaUBKTNV-1" source="6PNa06MbmQNXzE9C8vAL-5" target="6PNa06MbmQNXzE9C8vAL-2">
          <mxGeometry relative="1" as="geometry" />
        </mxCell>
        <mxCell id="6PNa06MbmQNXzE9C8vAL-24" value="No" style="edgeLabel;html=1;align=center;verticalAlign=middle;resizable=0;points=[];" vertex="1" connectable="0" parent="6PNa06MbmQNXzE9C8vAL-9">
          <mxGeometry x="0.1273" y="-3" relative="1" as="geometry">
            <mxPoint x="-23" y="53" as="offset" />
          </mxGeometry>
        </mxCell>
        <mxCell id="6PNa06MbmQNXzE9C8vAL-5" value="Is customer clicked&lt;br&gt;&amp;nbsp;on buy ?" style="rhombus;whiteSpace=wrap;html=1;" vertex="1" parent="WIyWlLk6GJQsqaUBKTNV-1">
          <mxGeometry x="440" y="420" width="100" height="90" as="geometry" />
        </mxCell>
        <mxCell id="6PNa06MbmQNXzE9C8vAL-10" value="" style="edgeStyle=orthogonalEdgeStyle;rounded=0;orthogonalLoop=1;jettySize=auto;html=1;" edge="1" parent="WIyWlLk6GJQsqaUBKTNV-1" source="6PNa06MbmQNXzE9C8vAL-6" target="6PNa06MbmQNXzE9C8vAL-7">
          <mxGeometry relative="1" as="geometry" />
        </mxCell>
        <mxCell id="6PNa06MbmQNXzE9C8vAL-6" value="Invoke Triva Backend to add product as ordered item as status &quot;inprocess&quot;" style="rounded=1;whiteSpace=wrap;html=1;fontSize=12;glass=0;strokeWidth=1;shadow=0;" vertex="1" parent="WIyWlLk6GJQsqaUBKTNV-1">
          <mxGeometry x="210" y="437.5" width="140" height="55" as="geometry" />
        </mxCell>
        <mxCell id="6PNa06MbmQNXzE9C8vAL-16" value="" style="edgeStyle=orthogonalEdgeStyle;rounded=0;orthogonalLoop=1;jettySize=auto;html=1;" edge="1" parent="WIyWlLk6GJQsqaUBKTNV-1" source="6PNa06MbmQNXzE9C8vAL-7" target="6PNa06MbmQNXzE9C8vAL-12">
          <mxGeometry relative="1" as="geometry" />
        </mxCell>
        <mxCell id="6PNa06MbmQNXzE9C8vAL-7" value="Redirect User to Shop web view to purchase with additional Triva attribute /exico id etc." style="rounded=1;whiteSpace=wrap;html=1;fontSize=12;glass=0;strokeWidth=1;shadow=0;" vertex="1" parent="WIyWlLk6GJQsqaUBKTNV-1">
          <mxGeometry x="185" y="547.5" width="190" height="55" as="geometry" />
        </mxCell>
        <mxCell id="6PNa06MbmQNXzE9C8vAL-18" style="edgeStyle=orthogonalEdgeStyle;rounded=0;orthogonalLoop=1;jettySize=auto;html=1;entryX=1;entryY=0.5;entryDx=0;entryDy=0;exitX=0.5;exitY=1;exitDx=0;exitDy=0;" edge="1" parent="WIyWlLk6GJQsqaUBKTNV-1" source="6PNa06MbmQNXzE9C8vAL-12" target="6PNa06MbmQNXzE9C8vAL-13">
          <mxGeometry relative="1" as="geometry" />
        </mxCell>
        <mxCell id="6PNa06MbmQNXzE9C8vAL-27" value="Yes" style="edgeLabel;html=1;align=center;verticalAlign=middle;resizable=0;points=[];" vertex="1" connectable="0" parent="6PNa06MbmQNXzE9C8vAL-18">
          <mxGeometry x="-0.735" y="2" relative="1" as="geometry">
            <mxPoint as="offset" />
          </mxGeometry>
        </mxCell>
        <mxCell id="6PNa06MbmQNXzE9C8vAL-19" style="edgeStyle=orthogonalEdgeStyle;rounded=0;orthogonalLoop=1;jettySize=auto;html=1;entryX=0.5;entryY=0;entryDx=0;entryDy=0;" edge="1" parent="WIyWlLk6GJQsqaUBKTNV-1" source="6PNa06MbmQNXzE9C8vAL-12" target="6PNa06MbmQNXzE9C8vAL-14">
          <mxGeometry relative="1" as="geometry" />
        </mxCell>
        <mxCell id="6PNa06MbmQNXzE9C8vAL-26" value="No" style="edgeLabel;html=1;align=center;verticalAlign=middle;resizable=0;points=[];" vertex="1" connectable="0" parent="6PNa06MbmQNXzE9C8vAL-19">
          <mxGeometry x="0.4462" relative="1" as="geometry">
            <mxPoint x="-70" y="-41" as="offset" />
          </mxGeometry>
        </mxCell>
        <mxCell id="6PNa06MbmQNXzE9C8vAL-12" value="Is purchase Success ?" style="rhombus;whiteSpace=wrap;html=1;" vertex="1" parent="WIyWlLk6GJQsqaUBKTNV-1">
          <mxGeometry x="450" y="530" width="90" height="90" as="geometry" />
        </mxCell>
        <mxCell id="6PNa06MbmQNXzE9C8vAL-20" value="" style="edgeStyle=orthogonalEdgeStyle;rounded=0;orthogonalLoop=1;jettySize=auto;html=1;" edge="1" parent="WIyWlLk6GJQsqaUBKTNV-1" source="6PNa06MbmQNXzE9C8vAL-13" target="6PNa06MbmQNXzE9C8vAL-15">
          <mxGeometry relative="1" as="geometry" />
        </mxCell>
        <mxCell id="6PNa06MbmQNXzE9C8vAL-13" value="Shop redirects to success deep link page in web view" style="rounded=1;whiteSpace=wrap;html=1;fontSize=12;glass=0;strokeWidth=1;shadow=0;" vertex="1" parent="WIyWlLk6GJQsqaUBKTNV-1">
          <mxGeometry x="250" y="670" width="164" height="55" as="geometry" />
        </mxCell>
        <mxCell id="6PNa06MbmQNXzE9C8vAL-21" value="" style="edgeStyle=orthogonalEdgeStyle;rounded=0;orthogonalLoop=1;jettySize=auto;html=1;" edge="1" parent="WIyWlLk6GJQsqaUBKTNV-1" source="6PNa06MbmQNXzE9C8vAL-14" target="6PNa06MbmQNXzE9C8vAL-15">
          <mxGeometry relative="1" as="geometry" />
        </mxCell>
        <mxCell id="6PNa06MbmQNXzE9C8vAL-14" value="Shop redirect to failure deep link page in web view" style="rounded=1;whiteSpace=wrap;html=1;fontSize=12;glass=0;strokeWidth=1;shadow=0;" vertex="1" parent="WIyWlLk6GJQsqaUBKTNV-1">
          <mxGeometry x="570" y="670" width="140" height="55" as="geometry" />
        </mxCell>
        <mxCell id="6PNa06MbmQNXzE9C8vAL-23" value="" style="edgeStyle=orthogonalEdgeStyle;rounded=0;orthogonalLoop=1;jettySize=auto;html=1;" edge="1" parent="WIyWlLk6GJQsqaUBKTNV-1" source="6PNa06MbmQNXzE9C8vAL-15" target="6PNa06MbmQNXzE9C8vAL-22">
          <mxGeometry relative="1" as="geometry" />
        </mxCell>
        <mxCell id="6PNa06MbmQNXzE9C8vAL-15" value="Update Order item in Triva as per status received in deep link and show Thanks / regret message screen with option to go back to Order list" style="rounded=1;whiteSpace=wrap;html=1;fontSize=12;glass=0;strokeWidth=1;shadow=0;" vertex="1" parent="WIyWlLk6GJQsqaUBKTNV-1">
          <mxGeometry x="335" y="800" width="320" height="55" as="geometry" />
        </mxCell>
        <mxCell id="6PNa06MbmQNXzE9C8vAL-22" value="End" style="ellipse;whiteSpace=wrap;html=1;" vertex="1" parent="WIyWlLk6GJQsqaUBKTNV-1">
          <mxGeometry x="445" y="910" width="100" height="60" as="geometry" />
        </mxCell>
      </root>
    </mxGraphModel>
  </diagram>
</mxfile>
